<svg width="162" height="14" viewBox="0 0 162 14" fill="none" xmlns="http://www.w3.org/2000/svg">
<path d="M5.19695 0.198198H0V13.7117H3.18291V10.3063C3.66844 10.3964 4.20791 10.4324 4.8373 10.4324C8.55969 10.4324 10.9154 8.43243 10.9154 5.13514C10.9154 2.23423 8.73951 0.198198 5.19695 0.198198ZM4.74739 7.74775C4.17195 7.74775 3.65045 7.71171 3.18291 7.63964V2.95496H4.9452C6.88731 2.95496 7.69652 3.98198 7.69652 5.24324C7.69652 6.73874 6.88731 7.74775 4.74739 7.74775Z" fill="white"/>
<path d="M26.3431 13.7117L23.7716 8.97297C25.2282 8.16216 26.0734 6.75676 26.0734 4.82883C26.0734 1.92793 24.0414 0.198198 20.5168 0.198198H14.9782V13.7117H18.1611V9.71171C18.6646 9.8018 19.2221 9.85585 19.8694 9.85585C20.2111 9.85585 20.5348 9.83784 20.8405 9.81982L22.9265 13.7117H26.3431ZM19.7795 7.27928C19.1861 7.27928 18.6466 7.24324 18.1611 7.15315V2.95496H20.2111C22.1352 2.95496 22.8545 3.72973 22.8545 4.99099C22.8545 6.48649 21.9015 7.27928 19.7795 7.27928Z" fill="white"/>
<path d="M36.5475 14C40.6476 14 43.6147 10.973 43.6147 6.99099C43.6147 3.00901 40.6476 0 36.5475 0C32.5015 0 29.5164 3.00901 29.5164 6.99099C29.5164 10.973 32.5015 14 36.5475 14ZM36.5475 11.0991C34.2638 11.0991 32.6453 9.31531 32.6453 6.99099C32.6453 4.63063 34.2638 2.86486 36.5475 2.86486C38.8493 2.86486 40.4857 4.63063 40.4857 6.99099C40.4857 9.31531 38.8493 11.0991 36.5475 11.0991Z" fill="white"/>
<path d="M63.9051 13.7117L61.8192 0.0720726H61.4415L55.5613 8.21622L49.5731 0.0720726H49.1954L47.1095 13.7117H50.2204L51.2275 6.68468L55.3095 12.4504H55.795L59.7871 6.72072L60.7942 13.7117H63.9051Z" fill="white"/>
<path d="M73.4512 0.198198H68.2543V13.7117H71.4372V10.3063C71.9227 10.3964 72.4622 10.4324 73.0916 10.4324C76.8139 10.4324 79.1697 8.43243 79.1697 5.13514C79.1697 2.23423 76.9938 0.198198 73.4512 0.198198ZM73.0016 7.74775C72.4262 7.74775 71.9047 7.71171 71.4372 7.63964V2.95496H73.1995C75.1416 2.95496 75.9508 3.98198 75.9508 5.24324C75.9508 6.73874 75.1416 7.74775 73.0016 7.74775Z" fill="white"/>
<path d="M84.9107 13.7117H88.0577V2.93694H91.0428V0.198198H81.9076V2.93694H84.9107V13.7117Z" fill="white"/>
<path d="M110.753 0.198198V5.22522H104.693V0.198198H101.546V13.7117H104.693V8.09009H110.753V13.7117H113.9V0.198198H110.753Z" fill="white"/>
<path d="M125.093 14C128.816 14 131.243 11.6577 131.243 7.94595V0.198198H128.096V7.96396C128.096 9.83784 126.981 11.1171 125.093 11.1171C123.223 11.1171 122.108 9.83784 122.108 7.96396V0.198198H118.961V7.94595C118.961 11.6577 121.443 14 125.093 14Z" fill="white"/>
<path d="M145.629 0.198198V7.72973L136.638 0.0900902H136.296V13.7117H139.371V6.12613L148.381 13.8198H148.722V0.198198H145.629Z" fill="white"/>
<path d="M155.868 13.7117H159.015V2.93694H162V0.198198H152.865V2.93694H155.868V13.7117Z" fill="white"/>
</svg>
